<svg xmlns="http://www.w3.org/2000/svg" xmlns:svg="http://www.w3.org/2000/svg" xmlns:xlink="http://www.w3.org/1999/xlink" id="svg3465" width="64" height="64" version="1.1" viewBox="0 0 64 64" xml:space="preserve"><defs id="defs3469"><linearGradient id="linearGradient9542"><stop style="stop-color:#000;stop-opacity:.15805045" id="stop9538" offset="0"/><stop style="stop-color:#000;stop-opacity:.1" id="stop9540" offset="1"/></linearGradient><linearGradient id="linearGradient8049"><stop style="stop-color:#f2fecf;stop-opacity:1" id="stop8045" offset="0"/><stop style="stop-color:#7dc051;stop-opacity:1" id="stop8047" offset="1"/></linearGradient><linearGradient id="linearGradient3495" x1="0" x2="1" y1="0" y2="0" gradientTransform="matrix(0,-48,-48,0,31.999512,56)" gradientUnits="userSpaceOnUse" spreadMethod="pad"><stop style="stop-opacity:1;stop-color:#f99a9a" id="stop3491" offset="0"/><stop style="stop-opacity:1;stop-color:#df281c" id="stop3493" offset="1"/></linearGradient><clipPath id="clipPath3517" clipPathUnits="userSpaceOnUse"><path id="path3515" d="M 10.106,42.7568 H 54 V 10 H 10.106 Z"/></clipPath><linearGradient id="linearGradient8051" x1="-39.283" x2="5.024" y1="-35.994" y2="-35.994" gradientTransform="translate(-22.870971,11.994335)" gradientUnits="userSpaceOnUse" xlink:href="#linearGradient8049"/><clipPath id="clipPath9530" clipPathUnits="userSpaceOnUse"><g id="g9534" style="stroke-width:.923077" transform="matrix(1.0833333,0,0,1.0833333,6.0005001,-11.333333)"><path id="path9532" d="M -5.5389233,69.538463 H 53.538001 V 10.461538 H -5.5389233 Z" style="stroke-width:.923074"/></g></clipPath><linearGradient id="linearGradient9544" x1="28.826" x2="28.826" y1="-19.585" y2="-49.738" gradientUnits="userSpaceOnUse" xlink:href="#linearGradient9542"/></defs><g id="g3473" transform="matrix(1.3333333,0,0,-1.3333333,0,85.333333)"><ellipse style="opacity:1;fill:gray;fill-opacity:1;fill-rule:evenodd;stroke-width:.75;stroke-linecap:round;stroke-linejoin:round" id="path4653" cx="24" cy="-40" rx="24" ry="24" transform="scale(1,-1)"/><circle style="opacity:1;fill:url(#linearGradient8051);fill-opacity:1;fill-rule:evenodd;stroke-width:.750001;stroke-linecap:round;stroke-linejoin:round" id="path4655" cx="-40" cy="-24" r="22.154" transform="matrix(0,-1,-1,0,0,0)"/><circle style="opacity:1;fill:#a8dc6f;fill-opacity:1;fill-rule:evenodd;stroke-width:.75;stroke-linecap:round;stroke-linejoin:round" id="path4657" cx="24" cy="-40" r="20.308" transform="scale(1,-1)"/><path id="path4657-3" style="fill:url(#linearGradient9544);fill-rule:evenodd;stroke-width:.75;stroke-linecap:round;stroke-linejoin:round;fill-opacity:1" d="M 41.805177 -49.76172 C 27.976262 -47.336438 15.405714 -41.278638 5.0961915 -32.609864 A 20.307751 20.307751 0 0 0 24.000001 -19.692871 A 20.307751 20.307751 0 0 0 44.30713 -40.000001 A 20.307751 20.307751 0 0 0 41.805177 -49.76172 z" transform="scale(1,-1)"/><rect style="opacity:.6;fill:#000;fill-opacity:.963406;fill-rule:evenodd;stroke-width:.75;stroke-linecap:round;stroke-linejoin:round" id="rect13462" width="5.25" height="18" x="16.5" y="-49" transform="scale(1,-1)"/><rect style="opacity:.6;fill:#000;fill-opacity:.963406;fill-rule:evenodd;stroke-width:.75;stroke-linecap:round;stroke-linejoin:round" id="rect13464" width="5.25" height="18" x="26.25" y="-49" transform="scale(1,-1)"/></g></svg>